<mxfile host="Electron" modified="2024-07-16T13:03:52.662Z" agent="Mozilla/5.0 (Windows NT 10.0; Win64; x64) AppleWebKit/537.36 (KHTML, like Gecko) draw.io/24.6.4 Chrome/124.0.6367.207 Electron/30.0.6 Safari/537.36" etag="d7Lo8LtCLF0fsBwKd0Y7" version="24.6.4" type="device">
  <diagram name="Page-1" id="iEFG9g54VxZcdPQNiZsS">
    <mxGraphModel dx="1875" dy="1366" grid="1" gridSize="10" guides="1" tooltips="1" connect="1" arrows="1" fold="1" page="1" pageScale="1" pageWidth="1100" pageHeight="850" math="0" shadow="0">
      <root>
        <mxCell id="0" />
        <mxCell id="1" parent="0" />
        <mxCell id="CvbfwOuC7XzhDN-VZlbs-1" value="&lt;font style=&quot;font-size: 17px;&quot;&gt;&lt;span style=&quot;color: rgb(92, 99, 112); font-style: italic;&quot; class=&quot;token&quot;&gt;// app/dashboard/page.tsx&lt;/span&gt;&lt;br&gt;&lt;span style=&quot;color: rgb(152, 195, 121);&quot; class=&quot;token&quot;&gt;&#39;use client&#39;&lt;/span&gt;&lt;br&gt;&lt;br&gt;&lt;span style=&quot;color: rgb(198, 120, 221);&quot; class=&quot;token module&quot;&gt;import&lt;/span&gt; &lt;span style=&quot;color: rgb(171, 178, 191);&quot; class=&quot;token imports&quot;&gt;{&lt;/span&gt;&lt;span class=&quot;token imports&quot;&gt; useState &lt;/span&gt;&lt;span style=&quot;color: rgb(171, 178, 191);&quot; class=&quot;token imports&quot;&gt;}&lt;/span&gt; &lt;span style=&quot;color: rgb(198, 120, 221);&quot; class=&quot;token module&quot;&gt;from&lt;/span&gt; &lt;span style=&quot;color: rgb(152, 195, 121);&quot; class=&quot;token&quot;&gt;&#39;react&#39;&lt;/span&gt;&lt;br&gt;&lt;span style=&quot;color: rgb(198, 120, 221);&quot; class=&quot;token module&quot;&gt;import&lt;/span&gt; &lt;span class=&quot;token imports maybe-class-name&quot;&gt;Sidebar&lt;/span&gt; &lt;span style=&quot;color: rgb(198, 120, 221);&quot; class=&quot;token module&quot;&gt;from&lt;/span&gt; &lt;span style=&quot;color: rgb(152, 195, 121);&quot; class=&quot;token&quot;&gt;&#39;@/components/Sidebar&#39;&lt;/span&gt;&lt;br&gt;&lt;span style=&quot;color: rgb(198, 120, 221);&quot; class=&quot;token module&quot;&gt;import&lt;/span&gt; &lt;span class=&quot;token imports maybe-class-name&quot;&gt;DashboardContent&lt;/span&gt; &lt;span style=&quot;color: rgb(198, 120, 221);&quot; class=&quot;token module&quot;&gt;from&lt;/span&gt; &lt;span style=&quot;color: rgb(152, 195, 121);&quot; class=&quot;token&quot;&gt;&#39;@/components/DashboardContent&#39;&lt;/span&gt;&lt;br&gt;&lt;br&gt;&lt;span style=&quot;color: rgb(198, 120, 221);&quot; class=&quot;token module&quot;&gt;export&lt;/span&gt; &lt;span style=&quot;color: rgb(198, 120, 221);&quot; class=&quot;token module&quot;&gt;default&lt;/span&gt; &lt;span style=&quot;color: rgb(198, 120, 221);&quot; class=&quot;token&quot;&gt;function&lt;/span&gt; &lt;span style=&quot;color: rgb(97, 175, 239);&quot; class=&quot;token maybe-class-name&quot;&gt;DashboardPage&lt;/span&gt;&lt;span style=&quot;color: rgb(171, 178, 191);&quot; class=&quot;token&quot;&gt;(&lt;/span&gt;&lt;span style=&quot;color: rgb(171, 178, 191);&quot; class=&quot;token&quot;&gt;)&lt;/span&gt; &lt;span style=&quot;color: rgb(171, 178, 191);&quot; class=&quot;token&quot;&gt;{&lt;/span&gt;&lt;br&gt;  &lt;span style=&quot;color: rgb(198, 120, 221);&quot; class=&quot;token&quot;&gt;const&lt;/span&gt; &lt;span style=&quot;color: rgb(171, 178, 191);&quot; class=&quot;token&quot;&gt;[&lt;/span&gt;selectedItem&lt;span style=&quot;color: rgb(171, 178, 191);&quot; class=&quot;token&quot;&gt;,&lt;/span&gt; setSelectedItem&lt;span style=&quot;color: rgb(171, 178, 191);&quot; class=&quot;token&quot;&gt;]&lt;/span&gt; &lt;span style=&quot;color: rgb(97, 175, 239);&quot; class=&quot;token&quot;&gt;=&lt;/span&gt; &lt;span style=&quot;color: rgb(97, 175, 239);&quot; class=&quot;token&quot;&gt;useState&lt;/span&gt;&lt;span style=&quot;color: rgb(171, 178, 191);&quot; class=&quot;token&quot;&gt;(&lt;/span&gt;&lt;span style=&quot;color: rgb(152, 195, 121);&quot; class=&quot;token&quot;&gt;&#39;overview&#39;&lt;/span&gt;&lt;span style=&quot;color: rgb(171, 178, 191);&quot; class=&quot;token&quot;&gt;)&lt;/span&gt;&lt;br&gt;&lt;br&gt;  &lt;span style=&quot;color: rgb(198, 120, 221);&quot; class=&quot;token control-flow&quot;&gt;return&lt;/span&gt; &lt;span style=&quot;color: rgb(171, 178, 191);&quot; class=&quot;token&quot;&gt;(&lt;/span&gt;&lt;br&gt;    &lt;span style=&quot;color: rgb(171, 178, 191);&quot; class=&quot;token&quot;&gt;&amp;lt;&lt;/span&gt;&lt;span style=&quot;color: rgb(224, 108, 117);&quot; class=&quot;token&quot;&gt;div&lt;/span&gt;&lt;span style=&quot;color: rgb(224, 108, 117);&quot; class=&quot;token&quot;&gt; &lt;/span&gt;&lt;span style=&quot;color: rgb(209, 154, 102);&quot; class=&quot;token&quot;&gt;className&lt;/span&gt;&lt;span style=&quot;color: rgb(171, 178, 191);&quot; class=&quot;token&quot;&gt;=&lt;/span&gt;&lt;span style=&quot;color: rgb(171, 178, 191);&quot; class=&quot;token&quot;&gt;&quot;&lt;/span&gt;&lt;span style=&quot;color: rgb(152, 195, 121);&quot; class=&quot;token&quot;&gt;dashboard-layout&lt;/span&gt;&lt;span style=&quot;color: rgb(171, 178, 191);&quot; class=&quot;token&quot;&gt;&quot;&lt;/span&gt;&lt;span style=&quot;color: rgb(171, 178, 191);&quot; class=&quot;token&quot;&gt;&amp;gt;&lt;/span&gt;&lt;span class=&quot;token plain-text&quot;&gt;&lt;br&gt;&lt;/span&gt;&lt;span class=&quot;token plain-text&quot;&gt;      &lt;/span&gt;&lt;span style=&quot;color: rgb(171, 178, 191);&quot; class=&quot;token&quot;&gt;&amp;lt;&lt;/span&gt;&lt;span style=&quot;color: rgb(209, 154, 102);&quot; class=&quot;token&quot;&gt;Sidebar&lt;/span&gt;&lt;span style=&quot;color: rgb(224, 108, 117);&quot; class=&quot;token&quot;&gt; &lt;br&gt;&lt;/span&gt;&lt;span style=&quot;color: rgb(224, 108, 117);&quot; class=&quot;token&quot;&gt;        &lt;/span&gt;&lt;span style=&quot;color: rgb(209, 154, 102);&quot; class=&quot;token&quot;&gt;selectedItem&lt;/span&gt;&lt;span style=&quot;color: rgb(224, 108, 117);&quot; class=&quot;token script language-javascript script-punctuation&quot;&gt;=&lt;/span&gt;&lt;span style=&quot;color: rgb(171, 178, 191);&quot; class=&quot;token script language-javascript&quot;&gt;{&lt;/span&gt;&lt;span style=&quot;color: rgb(224, 108, 117);&quot; class=&quot;token script language-javascript&quot;&gt;selectedItem&lt;/span&gt;&lt;span style=&quot;color: rgb(171, 178, 191);&quot; class=&quot;token script language-javascript&quot;&gt;}&lt;/span&gt;&lt;span style=&quot;color: rgb(224, 108, 117);&quot; class=&quot;token&quot;&gt; &lt;br&gt;&lt;/span&gt;&lt;span style=&quot;color: rgb(224, 108, 117);&quot; class=&quot;token&quot;&gt;        &lt;/span&gt;&lt;span style=&quot;color: rgb(209, 154, 102);&quot; class=&quot;token&quot;&gt;onItemSelect&lt;/span&gt;&lt;span style=&quot;color: rgb(224, 108, 117);&quot; class=&quot;token script language-javascript script-punctuation&quot;&gt;=&lt;/span&gt;&lt;span style=&quot;color: rgb(171, 178, 191);&quot; class=&quot;token script language-javascript&quot;&gt;{&lt;/span&gt;&lt;span style=&quot;color: rgb(224, 108, 117);&quot; class=&quot;token script language-javascript&quot;&gt;setSelectedItem&lt;/span&gt;&lt;span style=&quot;color: rgb(171, 178, 191);&quot; class=&quot;token script language-javascript&quot;&gt;}&lt;/span&gt;&lt;span style=&quot;color: rgb(224, 108, 117);&quot; class=&quot;token&quot;&gt; &lt;br&gt;&lt;/span&gt;&lt;span style=&quot;color: rgb(224, 108, 117);&quot; class=&quot;token&quot;&gt;      &lt;/span&gt;&lt;span style=&quot;color: rgb(171, 178, 191);&quot; class=&quot;token&quot;&gt;/&amp;gt;&lt;/span&gt;&lt;span class=&quot;token plain-text&quot;&gt;&lt;br&gt;&lt;/span&gt;&lt;span class=&quot;token plain-text&quot;&gt;      &lt;/span&gt;&lt;span style=&quot;color: rgb(171, 178, 191);&quot; class=&quot;token&quot;&gt;&amp;lt;&lt;/span&gt;&lt;span style=&quot;color: rgb(209, 154, 102);&quot; class=&quot;token&quot;&gt;DashboardContent&lt;/span&gt;&lt;span style=&quot;color: rgb(224, 108, 117);&quot; class=&quot;token&quot;&gt; &lt;/span&gt;&lt;span style=&quot;color: rgb(209, 154, 102);&quot; class=&quot;token&quot;&gt;selectedItem&lt;/span&gt;&lt;span style=&quot;color: rgb(224, 108, 117);&quot; class=&quot;token script language-javascript script-punctuation&quot;&gt;=&lt;/span&gt;&lt;span style=&quot;color: rgb(171, 178, 191);&quot; class=&quot;token script language-javascript&quot;&gt;{&lt;/span&gt;&lt;span style=&quot;color: rgb(224, 108, 117);&quot; class=&quot;token script language-javascript&quot;&gt;selectedItem&lt;/span&gt;&lt;span style=&quot;color: rgb(171, 178, 191);&quot; class=&quot;token script language-javascript&quot;&gt;}&lt;/span&gt;&lt;span style=&quot;color: rgb(224, 108, 117);&quot; class=&quot;token&quot;&gt; &lt;/span&gt;&lt;span style=&quot;color: rgb(171, 178, 191);&quot; class=&quot;token&quot;&gt;/&amp;gt;&lt;/span&gt;&lt;span class=&quot;token plain-text&quot;&gt;&lt;br&gt;&lt;/span&gt;&lt;span class=&quot;token plain-text&quot;&gt;    &lt;/span&gt;&lt;span style=&quot;color: rgb(171, 178, 191);&quot; class=&quot;token&quot;&gt;&amp;lt;/&lt;/span&gt;&lt;span style=&quot;color: rgb(224, 108, 117);&quot; class=&quot;token&quot;&gt;div&lt;/span&gt;&lt;span style=&quot;color: rgb(171, 178, 191);&quot; class=&quot;token&quot;&gt;&amp;gt;&lt;/span&gt;&lt;br&gt;  &lt;span style=&quot;color: rgb(171, 178, 191);&quot; class=&quot;token&quot;&gt;)&lt;/span&gt;&lt;br&gt;&lt;span style=&quot;color: rgb(171, 178, 191);&quot; class=&quot;token&quot;&gt;}&lt;/span&gt;&lt;/font&gt;" style="text;html=1;align=left;verticalAlign=middle;whiteSpace=wrap;rounded=0;fontFamily=Architects Daughter;fontSource=https%3A%2F%2Ffonts.googleapis.com%2Fcss%3Ffamily%3DArchitects%2BDaughter;" vertex="1" parent="1">
          <mxGeometry x="140" y="90" width="320" height="410" as="geometry" />
        </mxCell>
        <mxCell id="CvbfwOuC7XzhDN-VZlbs-2" value="&lt;font style=&quot;font-size: 17px;&quot;&gt;&lt;span style=&quot;color: rgb(92, 99, 112); font-style: italic;&quot; class=&quot;token&quot;&gt;// components/Sidebar.tsx&lt;/span&gt;&lt;br&gt;&lt;span style=&quot;color: rgb(198, 120, 221);&quot; class=&quot;token&quot;&gt;function&lt;/span&gt; &lt;span style=&quot;color: rgb(97, 175, 239);&quot; class=&quot;token maybe-class-name&quot;&gt;Sidebar&lt;/span&gt;&lt;span style=&quot;color: rgb(171, 178, 191);&quot; class=&quot;token&quot;&gt;(&lt;/span&gt;&lt;span style=&quot;color: rgb(171, 178, 191);&quot; class=&quot;token&quot;&gt;{&lt;/span&gt; selectedItem&lt;span style=&quot;color: rgb(171, 178, 191);&quot; class=&quot;token&quot;&gt;,&lt;/span&gt; onItemSelect &lt;span style=&quot;color: rgb(171, 178, 191);&quot; class=&quot;token&quot;&gt;}&lt;/span&gt;&lt;span style=&quot;color: rgb(171, 178, 191);&quot; class=&quot;token&quot;&gt;)&lt;/span&gt; &lt;span style=&quot;color: rgb(171, 178, 191);&quot; class=&quot;token&quot;&gt;{&lt;/span&gt;&lt;br&gt;  &lt;span style=&quot;color: rgb(198, 120, 221);&quot; class=&quot;token&quot;&gt;const&lt;/span&gt; items &lt;span style=&quot;color: rgb(97, 175, 239);&quot; class=&quot;token&quot;&gt;=&lt;/span&gt; &lt;span style=&quot;color: rgb(171, 178, 191);&quot; class=&quot;token&quot;&gt;[&lt;/span&gt;&lt;span style=&quot;color: rgb(152, 195, 121);&quot; class=&quot;token&quot;&gt;&#39;overview&#39;&lt;/span&gt;&lt;span style=&quot;color: rgb(171, 178, 191);&quot; class=&quot;token&quot;&gt;,&lt;/span&gt; &lt;span style=&quot;color: rgb(152, 195, 121);&quot; class=&quot;token&quot;&gt;&#39;analytics&#39;&lt;/span&gt;&lt;span style=&quot;color: rgb(171, 178, 191);&quot; class=&quot;token&quot;&gt;,&lt;/span&gt; &lt;span style=&quot;color: rgb(152, 195, 121);&quot; class=&quot;token&quot;&gt;&#39;settings&#39;&lt;/span&gt;&lt;span style=&quot;color: rgb(171, 178, 191);&quot; class=&quot;token&quot;&gt;]&lt;/span&gt;&lt;br&gt;&lt;br&gt;  &lt;span style=&quot;color: rgb(198, 120, 221);&quot; class=&quot;token control-flow&quot;&gt;return&lt;/span&gt; &lt;span style=&quot;color: rgb(171, 178, 191);&quot; class=&quot;token&quot;&gt;(&lt;/span&gt;&lt;br&gt;    &lt;span style=&quot;color: rgb(171, 178, 191);&quot; class=&quot;token&quot;&gt;&amp;lt;&lt;/span&gt;&lt;span style=&quot;color: rgb(224, 108, 117);&quot; class=&quot;token&quot;&gt;nav&lt;/span&gt;&lt;span style=&quot;color: rgb(171, 178, 191);&quot; class=&quot;token&quot;&gt;&amp;gt;&lt;/span&gt;&lt;span class=&quot;token plain-text&quot;&gt;&lt;br&gt;&lt;/span&gt;&lt;span class=&quot;token plain-text&quot;&gt;      &lt;/span&gt;&lt;span style=&quot;color: rgb(171, 178, 191);&quot; class=&quot;token&quot;&gt;{&lt;/span&gt;items&lt;span style=&quot;color: rgb(171, 178, 191);&quot; class=&quot;token&quot;&gt;.&lt;/span&gt;&lt;span style=&quot;color: rgb(97, 175, 239);&quot; class=&quot;token method property-access&quot;&gt;map&lt;/span&gt;&lt;span style=&quot;color: rgb(171, 178, 191);&quot; class=&quot;token&quot;&gt;(&lt;/span&gt;item &lt;span style=&quot;color: rgb(97, 175, 239);&quot; class=&quot;token arrow&quot;&gt;=&amp;gt;&lt;/span&gt; &lt;span style=&quot;color: rgb(171, 178, 191);&quot; class=&quot;token&quot;&gt;(&lt;/span&gt;&lt;br&gt;        &lt;span style=&quot;color: rgb(171, 178, 191);&quot; class=&quot;token&quot;&gt;&amp;lt;&lt;/span&gt;&lt;span style=&quot;color: rgb(224, 108, 117);&quot; class=&quot;token&quot;&gt;button&lt;/span&gt;&lt;span style=&quot;color: rgb(224, 108, 117);&quot; class=&quot;token&quot;&gt; &lt;br&gt;&lt;/span&gt;&lt;span style=&quot;color: rgb(224, 108, 117);&quot; class=&quot;token&quot;&gt;          &lt;/span&gt;&lt;span style=&quot;color: rgb(209, 154, 102);&quot; class=&quot;token&quot;&gt;key&lt;/span&gt;&lt;span style=&quot;color: rgb(224, 108, 117);&quot; class=&quot;token script language-javascript script-punctuation&quot;&gt;=&lt;/span&gt;&lt;span style=&quot;color: rgb(171, 178, 191);&quot; class=&quot;token script language-javascript&quot;&gt;{&lt;/span&gt;&lt;span style=&quot;color: rgb(224, 108, 117);&quot; class=&quot;token script language-javascript&quot;&gt;item&lt;/span&gt;&lt;span style=&quot;color: rgb(171, 178, 191);&quot; class=&quot;token script language-javascript&quot;&gt;}&lt;/span&gt;&lt;span style=&quot;color: rgb(224, 108, 117);&quot; class=&quot;token&quot;&gt;&lt;br&gt;&lt;/span&gt;&lt;span style=&quot;color: rgb(224, 108, 117);&quot; class=&quot;token&quot;&gt;          &lt;/span&gt;&lt;span style=&quot;color: rgb(209, 154, 102);&quot; class=&quot;token&quot;&gt;onClick&lt;/span&gt;&lt;span style=&quot;color: rgb(224, 108, 117);&quot; class=&quot;token script language-javascript script-punctuation&quot;&gt;=&lt;/span&gt;&lt;span style=&quot;color: rgb(171, 178, 191);&quot; class=&quot;token script language-javascript&quot;&gt;{&lt;/span&gt;&lt;span style=&quot;color: rgb(171, 178, 191);&quot; class=&quot;token script language-javascript&quot;&gt;(&lt;/span&gt;&lt;span style=&quot;color: rgb(171, 178, 191);&quot; class=&quot;token script language-javascript&quot;&gt;)&lt;/span&gt;&lt;span style=&quot;color: rgb(224, 108, 117);&quot; class=&quot;token script language-javascript&quot;&gt; &lt;/span&gt;&lt;span style=&quot;color: rgb(224, 108, 117);&quot; class=&quot;token script language-javascript arrow&quot;&gt;=&amp;gt;&lt;/span&gt;&lt;span style=&quot;color: rgb(224, 108, 117);&quot; class=&quot;token script language-javascript&quot;&gt; &lt;/span&gt;&lt;span style=&quot;color: rgb(97, 175, 239);&quot; class=&quot;token script language-javascript&quot;&gt;onItemSelect&lt;/span&gt;&lt;span style=&quot;color: rgb(171, 178, 191);&quot; class=&quot;token script language-javascript&quot;&gt;(&lt;/span&gt;&lt;span style=&quot;color: rgb(224, 108, 117);&quot; class=&quot;token script language-javascript&quot;&gt;item&lt;/span&gt;&lt;span style=&quot;color: rgb(171, 178, 191);&quot; class=&quot;token script language-javascript&quot;&gt;)&lt;/span&gt;&lt;span style=&quot;color: rgb(171, 178, 191);&quot; class=&quot;token script language-javascript&quot;&gt;}&lt;/span&gt;&lt;span style=&quot;color: rgb(224, 108, 117);&quot; class=&quot;token&quot;&gt;&lt;br&gt;&lt;/span&gt;&lt;span style=&quot;color: rgb(224, 108, 117);&quot; class=&quot;token&quot;&gt;          &lt;/span&gt;&lt;span style=&quot;color: rgb(209, 154, 102);&quot; class=&quot;token&quot;&gt;className&lt;/span&gt;&lt;span style=&quot;color: rgb(224, 108, 117);&quot; class=&quot;token script language-javascript script-punctuation&quot;&gt;=&lt;/span&gt;&lt;span style=&quot;color: rgb(171, 178, 191);&quot; class=&quot;token script language-javascript&quot;&gt;{&lt;/span&gt;&lt;span style=&quot;color: rgb(224, 108, 117);&quot; class=&quot;token script language-javascript&quot;&gt;item &lt;/span&gt;&lt;span style=&quot;color: rgb(97, 175, 239);&quot; class=&quot;token script language-javascript&quot;&gt;===&lt;/span&gt;&lt;span style=&quot;color: rgb(224, 108, 117);&quot; class=&quot;token script language-javascript&quot;&gt; selectedItem &lt;/span&gt;&lt;span style=&quot;color: rgb(97, 175, 239);&quot; class=&quot;token script language-javascript&quot;&gt;?&lt;/span&gt;&lt;span style=&quot;color: rgb(224, 108, 117);&quot; class=&quot;token script language-javascript&quot;&gt; &lt;/span&gt;&lt;span style=&quot;color: rgb(152, 195, 121);&quot; class=&quot;token script language-javascript&quot;&gt;&#39;active&#39;&lt;/span&gt;&lt;span style=&quot;color: rgb(224, 108, 117);&quot; class=&quot;token script language-javascript&quot;&gt; &lt;/span&gt;&lt;span style=&quot;color: rgb(97, 175, 239);&quot; class=&quot;token script language-javascript&quot;&gt;:&lt;/span&gt;&lt;span style=&quot;color: rgb(224, 108, 117);&quot; class=&quot;token script language-javascript&quot;&gt; &lt;/span&gt;&lt;span style=&quot;color: rgb(152, 195, 121);&quot; class=&quot;token script language-javascript&quot;&gt;&#39;&#39;&lt;/span&gt;&lt;span style=&quot;color: rgb(171, 178, 191);&quot; class=&quot;token script language-javascript&quot;&gt;}&lt;/span&gt;&lt;span style=&quot;color: rgb(224, 108, 117);&quot; class=&quot;token&quot;&gt;&lt;br&gt;&lt;/span&gt;&lt;span style=&quot;color: rgb(224, 108, 117);&quot; class=&quot;token&quot;&gt;        &lt;/span&gt;&lt;span style=&quot;color: rgb(171, 178, 191);&quot; class=&quot;token&quot;&gt;&amp;gt;&lt;/span&gt;&lt;span class=&quot;token plain-text&quot;&gt;&lt;br&gt;&lt;/span&gt;&lt;span class=&quot;token plain-text&quot;&gt;          &lt;/span&gt;&lt;span style=&quot;color: rgb(171, 178, 191);&quot; class=&quot;token&quot;&gt;{&lt;/span&gt;item&lt;span style=&quot;color: rgb(171, 178, 191);&quot; class=&quot;token&quot;&gt;}&lt;/span&gt;&lt;span class=&quot;token plain-text&quot;&gt;&lt;br&gt;&lt;/span&gt;&lt;span class=&quot;token plain-text&quot;&gt;        &lt;/span&gt;&lt;span style=&quot;color: rgb(171, 178, 191);&quot; class=&quot;token&quot;&gt;&amp;lt;/&lt;/span&gt;&lt;span style=&quot;color: rgb(224, 108, 117);&quot; class=&quot;token&quot;&gt;button&lt;/span&gt;&lt;span style=&quot;color: rgb(171, 178, 191);&quot; class=&quot;token&quot;&gt;&amp;gt;&lt;/span&gt;&lt;br&gt;      &lt;span style=&quot;color: rgb(171, 178, 191);&quot; class=&quot;token&quot;&gt;)&lt;/span&gt;&lt;span style=&quot;color: rgb(171, 178, 191);&quot; class=&quot;token&quot;&gt;)&lt;/span&gt;&lt;span style=&quot;color: rgb(171, 178, 191);&quot; class=&quot;token&quot;&gt;}&lt;/span&gt;&lt;span class=&quot;token plain-text&quot;&gt;&lt;br&gt;&lt;/span&gt;&lt;span class=&quot;token plain-text&quot;&gt;    &lt;/span&gt;&lt;span style=&quot;color: rgb(171, 178, 191);&quot; class=&quot;token&quot;&gt;&amp;lt;/&lt;/span&gt;&lt;span style=&quot;color: rgb(224, 108, 117);&quot; class=&quot;token&quot;&gt;nav&lt;/span&gt;&lt;span style=&quot;color: rgb(171, 178, 191);&quot; class=&quot;token&quot;&gt;&amp;gt;&lt;/span&gt;&lt;br&gt;  &lt;span style=&quot;color: rgb(171, 178, 191);&quot; class=&quot;token&quot;&gt;)&lt;/span&gt;&lt;br&gt;&lt;span style=&quot;color: rgb(171, 178, 191);&quot; class=&quot;token&quot;&gt;}&lt;/span&gt;&lt;/font&gt;" style="text;html=1;align=left;verticalAlign=middle;whiteSpace=wrap;rounded=0;fontFamily=Architects Daughter;fontSource=https%3A%2F%2Ffonts.googleapis.com%2Fcss%3Ffamily%3DArchitects%2BDaughter;" vertex="1" parent="1">
          <mxGeometry x="120" y="950" width="380" height="350" as="geometry" />
        </mxCell>
        <mxCell id="CvbfwOuC7XzhDN-VZlbs-3" value="&lt;font style=&quot;font-size: 17px;&quot;&gt;&lt;span style=&quot;color: rgb(92, 99, 112); font-style: italic;&quot; class=&quot;token&quot;&gt;// components/DashboardContent.tsx&lt;/span&gt;&lt;br&gt;&lt;span style=&quot;color: rgb(198, 120, 221);&quot; class=&quot;token&quot;&gt;function&lt;/span&gt; &lt;span style=&quot;color: rgb(97, 175, 239);&quot; class=&quot;token maybe-class-name&quot;&gt;DashboardContent&lt;/span&gt;&lt;span style=&quot;color: rgb(171, 178, 191);&quot; class=&quot;token&quot;&gt;(&lt;/span&gt;&lt;span style=&quot;color: rgb(171, 178, 191);&quot; class=&quot;token&quot;&gt;{&lt;/span&gt; selectedItem &lt;span style=&quot;color: rgb(171, 178, 191);&quot; class=&quot;token&quot;&gt;}&lt;/span&gt;&lt;span style=&quot;color: rgb(171, 178, 191);&quot; class=&quot;token&quot;&gt;)&lt;/span&gt; &lt;span style=&quot;color: rgb(171, 178, 191);&quot; class=&quot;token&quot;&gt;{&lt;/span&gt;&lt;br&gt;  &lt;span style=&quot;color: rgb(198, 120, 221);&quot; class=&quot;token control-flow&quot;&gt;switch&lt;/span&gt; &lt;span style=&quot;color: rgb(171, 178, 191);&quot; class=&quot;token&quot;&gt;(&lt;/span&gt;selectedItem&lt;span style=&quot;color: rgb(171, 178, 191);&quot; class=&quot;token&quot;&gt;)&lt;/span&gt; &lt;span style=&quot;color: rgb(171, 178, 191);&quot; class=&quot;token&quot;&gt;{&lt;/span&gt;&lt;br&gt;    &lt;span style=&quot;color: rgb(198, 120, 221);&quot; class=&quot;token&quot;&gt;case&lt;/span&gt; &lt;span style=&quot;color: rgb(152, 195, 121);&quot; class=&quot;token&quot;&gt;&#39;overview&#39;&lt;/span&gt;&lt;span style=&quot;color: rgb(97, 175, 239);&quot; class=&quot;token&quot;&gt;:&lt;/span&gt;&lt;br&gt;      &lt;span style=&quot;color: rgb(198, 120, 221);&quot; class=&quot;token control-flow&quot;&gt;return&lt;/span&gt; &lt;span style=&quot;color: rgb(171, 178, 191);&quot; class=&quot;token&quot;&gt;&amp;lt;&lt;/span&gt;&lt;span style=&quot;color: rgb(209, 154, 102);&quot; class=&quot;token&quot;&gt;OverviewComponent&lt;/span&gt;&lt;span style=&quot;color: rgb(224, 108, 117);&quot; class=&quot;token&quot;&gt; &lt;/span&gt;&lt;span style=&quot;color: rgb(171, 178, 191);&quot; class=&quot;token&quot;&gt;/&amp;gt;&lt;/span&gt;&lt;br&gt;    &lt;span style=&quot;color: rgb(198, 120, 221);&quot; class=&quot;token&quot;&gt;case&lt;/span&gt; &lt;span style=&quot;color: rgb(152, 195, 121);&quot; class=&quot;token&quot;&gt;&#39;analytics&#39;&lt;/span&gt;&lt;span style=&quot;color: rgb(97, 175, 239);&quot; class=&quot;token&quot;&gt;:&lt;/span&gt;&lt;br&gt;      &lt;span style=&quot;color: rgb(198, 120, 221);&quot; class=&quot;token control-flow&quot;&gt;return&lt;/span&gt; &lt;span style=&quot;color: rgb(171, 178, 191);&quot; class=&quot;token&quot;&gt;&amp;lt;&lt;/span&gt;&lt;span style=&quot;color: rgb(209, 154, 102);&quot; class=&quot;token&quot;&gt;AnalyticsComponent&lt;/span&gt;&lt;span style=&quot;color: rgb(224, 108, 117);&quot; class=&quot;token&quot;&gt; &lt;/span&gt;&lt;span style=&quot;color: rgb(171, 178, 191);&quot; class=&quot;token&quot;&gt;/&amp;gt;&lt;/span&gt;&lt;br&gt;    &lt;span style=&quot;color: rgb(198, 120, 221);&quot; class=&quot;token&quot;&gt;case&lt;/span&gt; &lt;span style=&quot;color: rgb(152, 195, 121);&quot; class=&quot;token&quot;&gt;&#39;settings&#39;&lt;/span&gt;&lt;span style=&quot;color: rgb(97, 175, 239);&quot; class=&quot;token&quot;&gt;:&lt;/span&gt;&lt;br&gt;      &lt;span style=&quot;color: rgb(198, 120, 221);&quot; class=&quot;token control-flow&quot;&gt;return&lt;/span&gt; &lt;span style=&quot;color: rgb(171, 178, 191);&quot; class=&quot;token&quot;&gt;&amp;lt;&lt;/span&gt;&lt;span style=&quot;color: rgb(209, 154, 102);&quot; class=&quot;token&quot;&gt;SettingsComponent&lt;/span&gt;&lt;span style=&quot;color: rgb(224, 108, 117);&quot; class=&quot;token&quot;&gt; &lt;/span&gt;&lt;span style=&quot;color: rgb(171, 178, 191);&quot; class=&quot;token&quot;&gt;/&amp;gt;&lt;/span&gt;&lt;br&gt;    &lt;span style=&quot;color: rgb(198, 120, 221);&quot; class=&quot;token module&quot;&gt;default&lt;/span&gt;&lt;span style=&quot;color: rgb(97, 175, 239);&quot; class=&quot;token&quot;&gt;:&lt;/span&gt;&lt;br&gt;      &lt;span style=&quot;color: rgb(198, 120, 221);&quot; class=&quot;token control-flow&quot;&gt;return&lt;/span&gt; &lt;span style=&quot;color: rgb(171, 178, 191);&quot; class=&quot;token&quot;&gt;&amp;lt;&lt;/span&gt;&lt;span style=&quot;color: rgb(224, 108, 117);&quot; class=&quot;token&quot;&gt;div&lt;/span&gt;&lt;span style=&quot;color: rgb(171, 178, 191);&quot; class=&quot;token&quot;&gt;&amp;gt;&lt;/span&gt;&lt;span class=&quot;token plain-text&quot;&gt;Select an item&lt;/span&gt;&lt;span style=&quot;color: rgb(171, 178, 191);&quot; class=&quot;token&quot;&gt;&amp;lt;/&lt;/span&gt;&lt;span style=&quot;color: rgb(224, 108, 117);&quot; class=&quot;token&quot;&gt;div&lt;/span&gt;&lt;span style=&quot;color: rgb(171, 178, 191);&quot; class=&quot;token&quot;&gt;&amp;gt;&lt;/span&gt;&lt;br&gt;  &lt;span style=&quot;color: rgb(171, 178, 191);&quot; class=&quot;token&quot;&gt;}&lt;/span&gt;&lt;br&gt;&lt;span style=&quot;color: rgb(171, 178, 191);&quot; class=&quot;token&quot;&gt;}&lt;/span&gt;&lt;/font&gt;" style="text;html=1;align=left;verticalAlign=middle;whiteSpace=wrap;rounded=0;fontFamily=Architects Daughter;fontSource=https%3A%2F%2Ffonts.googleapis.com%2Fcss%3Ffamily%3DArchitects%2BDaughter;" vertex="1" parent="1">
          <mxGeometry x="690" y="390" width="560" height="410" as="geometry" />
        </mxCell>
        <mxCell id="CvbfwOuC7XzhDN-VZlbs-4" value="" style="shape=waypoint;fillStyle=solid;size=6;pointerEvents=1;points=[];fillColor=none;resizable=0;rotatable=0;perimeter=centerPerimeter;snapToPoint=1;hachureGap=4;fontFamily=Architects Daughter;fontSource=https%3A%2F%2Ffonts.googleapis.com%2Fcss%3Ffamily%3DArchitects%2BDaughter;" vertex="1" parent="1">
          <mxGeometry x="420" y="450" width="20" height="20" as="geometry" />
        </mxCell>
        <mxCell id="CvbfwOuC7XzhDN-VZlbs-5" value="" style="shape=waypoint;fillStyle=solid;size=6;pointerEvents=1;points=[];fillColor=none;resizable=0;rotatable=0;perimeter=centerPerimeter;snapToPoint=1;hachureGap=4;fontFamily=Architects Daughter;fontSource=https%3A%2F%2Ffonts.googleapis.com%2Fcss%3Ffamily%3DArchitects%2BDaughter;" vertex="1" parent="1">
          <mxGeometry x="410" y="1130" width="20" height="20" as="geometry" />
        </mxCell>
        <mxCell id="CvbfwOuC7XzhDN-VZlbs-6" value="" style="edgeStyle=segmentEdgeStyle;endArrow=classic;html=1;curved=0;rounded=0;endSize=8;startSize=8;hachureGap=4;fontFamily=Architects Daughter;fontSource=https%3A%2F%2Ffonts.googleapis.com%2Fcss%3Ffamily%3DArchitects%2BDaughter;exitX=0.95;exitY=0.612;exitDx=0;exitDy=0;exitPerimeter=0;entryX=0.85;entryY=0.412;entryDx=0;entryDy=0;entryPerimeter=0;" edge="1" parent="1" source="CvbfwOuC7XzhDN-VZlbs-4" target="CvbfwOuC7XzhDN-VZlbs-5">
          <mxGeometry width="50" height="50" relative="1" as="geometry">
            <mxPoint x="760" y="720" as="sourcePoint" />
            <mxPoint x="810" y="670" as="targetPoint" />
            <Array as="points">
              <mxPoint x="580" y="460" />
              <mxPoint x="580" y="1140" />
            </Array>
          </mxGeometry>
        </mxCell>
        <mxCell id="CvbfwOuC7XzhDN-VZlbs-7" value="" style="shape=waypoint;fillStyle=solid;size=6;pointerEvents=1;points=[];fillColor=none;resizable=0;rotatable=0;perimeter=centerPerimeter;snapToPoint=1;hachureGap=4;fontFamily=Architects Daughter;fontSource=https%3A%2F%2Ffonts.googleapis.com%2Fcss%3Ffamily%3DArchitects%2BDaughter;" vertex="1" parent="1">
          <mxGeometry x="360" y="380" width="20" height="20" as="geometry" />
        </mxCell>
        <mxCell id="CvbfwOuC7XzhDN-VZlbs-8" value="" style="edgeStyle=segmentEdgeStyle;endArrow=classic;html=1;curved=0;rounded=0;endSize=8;startSize=8;hachureGap=4;fontFamily=Architects Daughter;fontSource=https%3A%2F%2Ffonts.googleapis.com%2Fcss%3Ffamily%3DArchitects%2BDaughter;entryX=0.7;entryY=0.212;entryDx=0;entryDy=0;entryPerimeter=0;" edge="1" parent="1" target="CvbfwOuC7XzhDN-VZlbs-7">
          <mxGeometry width="50" height="50" relative="1" as="geometry">
            <mxPoint x="430" y="460" as="sourcePoint" />
            <mxPoint x="810" y="670" as="targetPoint" />
            <Array as="points">
              <mxPoint x="430" y="390" />
            </Array>
          </mxGeometry>
        </mxCell>
        <mxCell id="CvbfwOuC7XzhDN-VZlbs-9" value="" style="shape=waypoint;sketch=0;fillStyle=solid;size=6;pointerEvents=1;points=[];fillColor=none;resizable=0;rotatable=0;perimeter=centerPerimeter;snapToPoint=1;" vertex="1" parent="1">
          <mxGeometry x="1000" y="460" width="20" height="20" as="geometry" />
        </mxCell>
        <mxCell id="CvbfwOuC7XzhDN-VZlbs-10" value="" style="edgeStyle=segmentEdgeStyle;endArrow=classic;html=1;curved=0;rounded=0;endSize=8;startSize=8;exitX=0.8;exitY=0.212;exitDx=0;exitDy=0;exitPerimeter=0;entryX=0.65;entryY=0.212;entryDx=0;entryDy=0;entryPerimeter=0;" edge="1" parent="1" source="CvbfwOuC7XzhDN-VZlbs-4" target="CvbfwOuC7XzhDN-VZlbs-9">
          <mxGeometry width="50" height="50" relative="1" as="geometry">
            <mxPoint x="760" y="720" as="sourcePoint" />
            <mxPoint x="810" y="670" as="targetPoint" />
            <Array as="points">
              <mxPoint x="430" y="420" />
              <mxPoint x="1010" y="420" />
            </Array>
          </mxGeometry>
        </mxCell>
      </root>
    </mxGraphModel>
  </diagram>
</mxfile>
